<svg xmlns="http://www.w3.org/2000/svg" width="312" height="264" fill="none" viewBox="0 0 312 264"><ellipse cx="154.427" cy="145.715" fill="#F8FAFD" rx="100.473" ry="99.808"/><rect width="11.977" height="11.977" x="100.531" y="48.569" fill="#E5EBF6" rx="5.988"/><rect width="23.954" height="23.954" x="192.354" y="19" fill="#E5EBF6" rx="11.977"/><rect width="9.315" height="9.315" x="88.554" y="228.223" fill="#E5EBF6" rx="4.658"/><rect width="5.323" height="5.323" x="30" y="93.815" fill="#E5EBF6" rx="2.662"/><rect width="6.654" height="6.654" x="276.192" y="116.438" fill="#E5EBF6" rx="3.327"/><rect width="5.323" height="5.323" x="216.308" y="40.584" fill="#E5EBF6" rx="2.662"/><g filter="url(#filter0_d_4868_78206)"><rect width="219.577" height="141.062" x="44.638" y="68.531" fill="#fff" rx="10"/><rect width="218.577" height="140.062" x="45.138" y="69.031" stroke="#E5EBF6" rx="9.5"/></g><rect width="10.646" height="10.646" x="176.385" y="133.738" fill="#CAD8EC" rx="5.323"/><rect width="10.646" height="10.646" x="121.823" y="133.738" fill="#CAD8EC" rx="5.323"/><rect width="17.3" height="3.992" x="145.777" y="160.354" fill="#CAD8EC" rx="1.996"/><rect width="18.631" height="2.662" fill="#CAD8EC" rx="1.331" transform="matrix(-0.906492 -0.422222 -0.422222 0.906492 195.015 129.628)"/><rect width="18.631" height="2.662" fill="#CAD8EC" rx="1.331" transform="matrix(-0.906492 -0.422222 -0.422222 0.906492 195.015 129.628)"/><rect width="18.631" height="2.662" x="113.838" y="129.628" fill="#CAD8EC" rx="1.331" transform="rotate(-24.975 113.838 129.628)"/><rect width="18.631" height="2.662" x="113.838" y="129.628" fill="#CAD8EC" rx="1.331" transform="rotate(-24.975 113.838 129.628)"/><path fill="#CAD8EC" d="M44.6384 78.5306C44.6384 73.0078 49.1156 68.5306 54.6384 68.5306H254.215C259.738 68.5306 264.215 73.0078 264.215 78.5306V81.8383H44.6384V78.5306Z"/><rect width="3.992" height="3.992" x="55.285" y="73.188" fill="#F7A0A0" rx="1.996"/><rect width="3.992" height="3.992" x="61.938" y="73.188" fill="#EFE7A3" rx="1.996"/><rect width="3.992" height="3.992" x="68.592" y="73.188" fill="#B7E9B9" rx="1.996"/><defs><filter id="filter0_d_4868_78206" width="291.577" height="213.062" x="8.638" y="38.531" color-interpolation-filters="sRGB" filterUnits="userSpaceOnUse"><feFlood flood-opacity="0" result="BackgroundImageFix"/><feColorMatrix in="SourceAlpha" result="hardAlpha" type="matrix" values="0 0 0 0 0 0 0 0 0 0 0 0 0 0 0 0 0 0 127 0"/><feOffset dy="6"/><feGaussianBlur stdDeviation="18"/><feComposite in2="hardAlpha" operator="out"/><feColorMatrix type="matrix" values="0 0 0 0 0 0 0 0 0 0.18125 0 0 0 0 0.3125 0 0 0 0.15 0"/><feBlend in2="BackgroundImageFix" mode="normal" result="effect1_dropShadow_4868_78206"/><feBlend in="SourceGraphic" in2="effect1_dropShadow_4868_78206" mode="normal" result="shape"/></filter></defs></svg>