<svg xmlns="http://www.w3.org/2000/svg" width="312" height="264" fill="none" viewBox="0 0 312 264"><ellipse cx="159.396" cy="145.715" fill="#F8FAFD" rx="100.473" ry="99.808"/><rect width="11.977" height="11.977" x="102.838" y="48.569" fill="#E5EBF6" rx="5.988"/><rect width="23.954" height="23.954" x="194.662" y="19" fill="#E5EBF6" rx="11.977"/><rect width="9.315" height="9.315" x="90.861" y="228.223" fill="#E5EBF6" rx="4.658"/><rect width="5.323" height="5.323" x="32.308" y="93.815" fill="#E5EBF6" rx="2.662"/><rect width="6.654" height="6.654" x="278.5" y="116.438" fill="#E5EBF6" rx="3.327"/><rect width="5.323" height="5.323" x="218.615" y="40.584" fill="#E5EBF6" rx="2.662"/><g filter="url(#filter0_d_4868_78723)"><rect width="139.731" height="63.877" x="19" y="76.515" fill="#fff" rx="10"/></g><rect width="42.585" height="3.992" x="29.646" y="123.092" fill="#E5EBF6" rx="1.996"/><rect width="21.292" height="3.992" x="86.869" y="123.092" fill="#CAD8EC" rx="1.996"/><rect width="23.954" height="3.992" x="29.646" y="87.162" fill="#E5EBF6" rx="1.996"/><g filter="url(#filter1_d_4868_78723)"><rect width="139.731" height="63.877" x="153.408" y="151.038" fill="#fff" rx="10"/></g><rect width="34.6" height="3.992" x="164.054" y="161.685" fill="#CAD8EC" rx="1.996"/><rect width="86.5" height="3.992" x="164.054" y="197.615" fill="#E5EBF6" rx="1.996"/><rect width="3.992" height="3.992" x="278.5" y="161.685" fill="#E5EBF6" rx="1.996"/><rect width="15.969" height="3.992" x="259.869" y="161.685" fill="#E5EBF6" rx="1.996"/><g filter="url(#filter2_d_4868_78723)"><rect width="214.254" height="98.477" x="50.938" y="91.154" fill="#fff" rx="10"/><rect width="213.254" height="97.477" x="51.438" y="91.654" stroke="#E5EBF6" rx="9.5"/></g><rect width="53.231" height="5.323" x="66.908" y="107.123" fill="#CAD8EC" rx="2"/><rect width="23.954" height="5.323" x="66.908" y="165.677" fill="#CAD8EC" rx="2"/><rect width="53.231" height="5.323" x="94.854" y="165.677" fill="#CAD8EC" rx="2"/><rect width="18.631" height="5.323" x="152.077" y="165.677" fill="#CAD8EC" rx="2"/><rect width="5.323" height="5.323" x="243.9" y="107.123" fill="#CAD8EC" rx="2"/><rect width="25.285" height="5.323" x="215.954" y="107.123" fill="#CAD8EC" rx="2"/><rect width="182.315" height="33.269" x="66.908" y="121.762" fill="#E5EBF6" rx="2"/><defs><filter id="filter0_d_4868_78723" width="171.731" height="95.877" x="3" y="66.515" color-interpolation-filters="sRGB" filterUnits="userSpaceOnUse"><feFlood flood-opacity="0" result="BackgroundImageFix"/><feColorMatrix in="SourceAlpha" result="hardAlpha" type="matrix" values="0 0 0 0 0 0 0 0 0 0 0 0 0 0 0 0 0 0 127 0"/><feOffset dy="6"/><feGaussianBlur stdDeviation="8"/><feComposite in2="hardAlpha" operator="out"/><feColorMatrix type="matrix" values="0 0 0 0 0 0 0 0 0 0.18125 0 0 0 0 0.3125 0 0 0 0.08 0"/><feBlend in2="BackgroundImageFix" mode="normal" result="effect1_dropShadow_4868_78723"/><feBlend in="SourceGraphic" in2="effect1_dropShadow_4868_78723" mode="normal" result="shape"/></filter><filter id="filter1_d_4868_78723" width="171.731" height="95.877" x="137.408" y="141.038" color-interpolation-filters="sRGB" filterUnits="userSpaceOnUse"><feFlood flood-opacity="0" result="BackgroundImageFix"/><feColorMatrix in="SourceAlpha" result="hardAlpha" type="matrix" values="0 0 0 0 0 0 0 0 0 0 0 0 0 0 0 0 0 0 127 0"/><feOffset dy="6"/><feGaussianBlur stdDeviation="8"/><feComposite in2="hardAlpha" operator="out"/><feColorMatrix type="matrix" values="0 0 0 0 0 0 0 0 0 0.18125 0 0 0 0 0.3125 0 0 0 0.08 0"/><feBlend in2="BackgroundImageFix" mode="normal" result="effect1_dropShadow_4868_78723"/><feBlend in="SourceGraphic" in2="effect1_dropShadow_4868_78723" mode="normal" result="shape"/></filter><filter id="filter2_d_4868_78723" width="286.254" height="170.477" x="14.938" y="61.154" color-interpolation-filters="sRGB" filterUnits="userSpaceOnUse"><feFlood flood-opacity="0" result="BackgroundImageFix"/><feColorMatrix in="SourceAlpha" result="hardAlpha" type="matrix" values="0 0 0 0 0 0 0 0 0 0 0 0 0 0 0 0 0 0 127 0"/><feOffset dy="6"/><feGaussianBlur stdDeviation="18"/><feComposite in2="hardAlpha" operator="out"/><feColorMatrix type="matrix" values="0 0 0 0 0 0 0 0 0 0.18125 0 0 0 0 0.3125 0 0 0 0.15 0"/><feBlend in2="BackgroundImageFix" mode="normal" result="effect1_dropShadow_4868_78723"/><feBlend in="SourceGraphic" in2="effect1_dropShadow_4868_78723" mode="normal" result="shape"/></filter></defs></svg>