<svg xmlns="http://www.w3.org/2000/svg" width="312" height="264" fill="none" viewBox="0 0 312 264"><ellipse cx="154.862" cy="145.715" fill="#F8FAFD" rx="100.473" ry="99.808"/><rect width="12" height="12" x="100" y="48" fill="#E5EBF6" rx="6"/><rect width="24" height="24" x="192" y="19" fill="#E5EBF6" rx="12"/><rect width="9" height="9" x="88" y="228" fill="#E5EBF6" rx="4.5"/><rect width="5" height="5" x="30" y="93" fill="#E5EBF6" rx="2.5"/><rect width="6" height="6" x="276" y="116" fill="#E5EBF6" rx="3"/><rect width="5" height="5" x="216" y="40" fill="#E5EBF6" rx="2.5"/><g filter="url(#filter0_d_4868_78210)"><rect width="219.577" height="141.062" x="45.073" y="68.531" fill="#fff" rx="10"/><rect width="218.577" height="140.062" x="45.573" y="69.031" stroke="#E5EBF6" rx="9.5"/></g><rect width="17.3" height="3.992" x="146.212" y="160.354" fill="#CAD8EC" rx="1.996"/><rect width="18.631" height="2.662" fill="#CAD8EC" rx="1.331" transform="matrix(-0.707107 -0.707107 -0.707107 0.707107 189.214 144.251)"/><rect width="18.631" height="2.662" fill="#CAD8EC" rx="1.331" transform="matrix(-0.707107 -0.707107 -0.707107 0.707107 189.214 144.251)"/><rect width="18.631" height="2.662" fill="#CAD8EC" rx="1.331" transform="matrix(0.707107 -0.707107 -0.707107 -0.707107 176.04 146.133)"/><rect width="18.631" height="2.662" fill="#CAD8EC" rx="1.331" transform="matrix(0.707107 -0.707107 -0.707107 -0.707107 176.04 146.133)"/><rect width="18.631" height="2.662" x="119.744" y="144.524" fill="#CAD8EC" rx="1.331" transform="rotate(-45 119.744 144.524)"/><rect width="18.631" height="2.662" x="119.744" y="144.524" fill="#CAD8EC" rx="1.331" transform="rotate(-45 119.744 144.524)"/><rect width="18.631" height="2.662" x="132.917" y="146.406" fill="#CAD8EC" rx="1.331" transform="rotate(-135 132.917 146.406)"/><rect width="18.631" height="2.662" x="132.917" y="146.406" fill="#CAD8EC" rx="1.331" transform="rotate(-135 132.917 146.406)"/><path fill="#CAD8EC" d="M45.073 78.5306C45.073 73.0078 49.5502 68.5306 55.073 68.5306H254.65C260.173 68.5306 264.65 73.0078 264.65 78.5306V81.8383H45.073V78.5306Z"/><rect width="3.992" height="3.992" x="55.719" y="73.188" fill="#F7A0A0" rx="1.996"/><rect width="3.992" height="3.992" x="62.373" y="73.188" fill="#EFE7A3" rx="1.996"/><rect width="3.992" height="3.992" x="69.027" y="73.188" fill="#B7E9B9" rx="1.996"/><defs><filter id="filter0_d_4868_78210" width="291.577" height="213.062" x="9.073" y="38.531" color-interpolation-filters="sRGB" filterUnits="userSpaceOnUse"><feFlood flood-opacity="0" result="BackgroundImageFix"/><feColorMatrix in="SourceAlpha" result="hardAlpha" type="matrix" values="0 0 0 0 0 0 0 0 0 0 0 0 0 0 0 0 0 0 127 0"/><feOffset dy="6"/><feGaussianBlur stdDeviation="18"/><feComposite in2="hardAlpha" operator="out"/><feColorMatrix type="matrix" values="0 0 0 0 0 0 0 0 0 0.18125 0 0 0 0 0.3125 0 0 0 0.15 0"/><feBlend in2="BackgroundImageFix" mode="normal" result="effect1_dropShadow_4868_78210"/><feBlend in="SourceGraphic" in2="effect1_dropShadow_4868_78210" mode="normal" result="shape"/></filter></defs></svg>