<svg xmlns="http://www.w3.org/2000/svg" id="Layer_1" width="56.715" height="56.501" data-name="Layer 1" viewBox="0 0 56.715 56.501"><defs><style>.cls-1{fill:#57aeea}.cls-2{fill:#7869d0}.cls-3{fill:#688bdd}.cls-4{fill:#8946c2}.cls-5{fill:#9923b5}</style></defs><title>Aim Logo</title><g id="Logo"><path d="M43.8887,2.55052A4.37315,4.37315,0,1,0,37.704,8.73494l10.98239,10.983a4.373,4.373,0,1,0,6.18471-6.18411Z" class="cls-1"/><path d="M11.46467,5.38778a4.37283,4.37283,0,1,0-6.18411,6.18411l39.472,39.472A4.37314,4.37314,0,0,0,50.9373,44.8595Z" class="cls-2"/><path d="M24.98757,1.2809a4.37293,4.37293,0,1,0-6.18411,6.18441l30.44626,30.446a4.37293,4.37293,0,1,0,6.18411-6.18441Z" class="cls-3"/><path d="M7.463,19.01562A4.37314,4.37314,0,1,0,1.27833,25.2L31.29946,55.22055a4.37314,4.37314,0,1,0,6.18471-6.18441Z" class="cls-4"/><path d="M8.62889,37.81033a4.37315,4.37315,0,1,0-6.18471,6.18442l10.98239,10.983a4.373,4.373,0,1,0,6.18471-6.18411Z" class="cls-5"/></g></svg>